HIERARCHY
ROOT Hips
{
	OFFSET 0.000000 0.000000 0.000000
	CHANNELS 6 Xposition Yposition Zposition Xrotation Yrotation Zrotation
	JOINT LeftUpLeg_virtual
	{
		OFFSET 0.000000 0.000000 0.000000
		CHANNELS 3 Xrotation Yrotation Zrotation
		JOINT LeftUpLeg
		{
			OFFSET 11.394100 -6.187798 -0.413800
			CHANNELS 3 Xrotation Yrotation Zrotation
			JOINT LeftLeg
			{
				OFFSET 0.430247 -32.302673 3.732800
				CHANNELS 3 Xrotation Yrotation Zrotation
				JOINT LeftFoot
				{
					OFFSET -0.430247 -48.264931 -6.423300
					CHANNELS 3 Xrotation Yrotation Zrotation
					JOINT LeftToeBase
					{
						OFFSET 4.230900 -16.068199 23.438400
						CHANNELS 3 Xrotation Yrotation Zrotation
						JOINT LeftToe_End
						{
							OFFSET 4.510700 0.695400 19.974600
							CHANNELS 3 Xrotation Yrotation Zrotation
							End Site
							{
								OFFSET 0 0 0
							}
						}
					}
				}
			}
		}
	}
	JOINT RightUpLeg_virtual
	{
		OFFSET 0.000000 0.000000 0.000000
		CHANNELS 3 Xrotation Yrotation Zrotation
		JOINT RightUpLeg
		{
			OFFSET -11.333700 -6.187798 -0.413800
			CHANNELS 3 Xrotation Yrotation Zrotation
			JOINT RightLeg
			{
				OFFSET -0.430392 -32.302628 3.733000
				CHANNELS 3 Xrotation Yrotation Zrotation
				JOINT RightFoot
				{
					OFFSET 0.430392 -48.264973 -6.423500
					CHANNELS 3 Xrotation Yrotation Zrotation
					JOINT RightToeBase
					{
						OFFSET -4.230900 -16.068199 23.438400
						CHANNELS 3 Xrotation Yrotation Zrotation
						JOINT RightToe_End
						{
							OFFSET -4.510700 0.695400 19.974600
							CHANNELS 3 Xrotation Yrotation Zrotation
							End Site
							{
								OFFSET 0 0 0
							}
						}
					}
				}
			}
		}
	}
	JOINT Spine_virtual
	{
		OFFSET 0.000000 0.000000 0.000000
		CHANNELS 3 Xrotation Yrotation Zrotation
		JOINT Spine
		{
			OFFSET -0.002400 12.777504 0.315300
			CHANNELS 3 Xrotation Yrotation Zrotation
			JOINT Spine1
			{
				OFFSET -0.002067 5.816869 0.032633
				CHANNELS 3 Xrotation Yrotation Zrotation
				JOINT Spine1_split
				{
					OFFSET -0.002067 5.816869 0.032633
					CHANNELS 3 Xrotation Yrotation Zrotation
					JOINT Spine2
					{
						OFFSET -0.002067 5.816869 0.032633
						CHANNELS 3 Xrotation Yrotation Zrotation
						JOINT Neck_virtual
						{
							OFFSET 0.000000 0.000000 0.000000
							CHANNELS 3 Xrotation Yrotation Zrotation
							JOINT Neck
							{
								OFFSET -0.003700 21.199493 -0.826900
								CHANNELS 3 Xrotation Yrotation Zrotation
								JOINT Head
								{
									OFFSET 0.000000 20.442200 4.834800
									CHANNELS 3 Xrotation Yrotation Zrotation
									JOINT HeadTop_End
									{
										OFFSET 0.000000 34.668396 4.968400
										CHANNELS 3 Xrotation Yrotation Zrotation
										End Site
										{
											OFFSET 0 0 0
										}
									}
								}
							}
						}
						JOINT LeftShoulder_virtual
						{
							OFFSET 0.000000 0.000000 0.000000
							CHANNELS 3 Xrotation Yrotation Zrotation
							JOINT LeftShoulder
							{
								OFFSET 3.288150 8.794197 -1.372250
								CHANNELS 3 Xrotation Yrotation Zrotation
								JOINT LeftShoulder_split
								{
									OFFSET 3.288150 8.794197 -1.372250
									CHANNELS 3 Xrotation Yrotation Zrotation
									JOINT LeftArm
									{
										OFFSET 11.953299 -2.279007 -0.146200
										CHANNELS 3 Xrotation Yrotation Zrotation
										JOINT LeftForeArm
										{
											OFFSET 18.448900 0.000000 0.000000
											CHANNELS 3 Xrotation Yrotation Zrotation
											JOINT LeftHand
											{
												OFFSET 29.527798 0.000000 0.000000
												CHANNELS 3 Xrotation Yrotation Zrotation
												End Site
												{
													OFFSET 0 0 0
												}
											}
										}
									}
								}
							}
						}
						JOINT RightShoulder_virtual
						{
							OFFSET 0.000000 0.000000 0.000000
							CHANNELS 3 Xrotation Yrotation Zrotation
							JOINT RightShoulder
							{
								OFFSET -3.249400 8.794197 -1.372250
								CHANNELS 3 Xrotation Yrotation Zrotation
								JOINT RightShoulder_split
								{
									OFFSET -3.249400 8.794197 -1.372250
									CHANNELS 3 Xrotation Yrotation Zrotation
									JOINT RightArm
									{
										OFFSET -11.953299 -2.279007 -0.146200
										CHANNELS 3 Xrotation Yrotation Zrotation
										JOINT RightForeArm
										{
											OFFSET -18.448900 0.000000 0.000000
											CHANNELS 3 Xrotation Yrotation Zrotation
											JOINT RightHand
											{
												OFFSET -29.527802 0.000000 0.000000
												CHANNELS 3 Xrotation Yrotation Zrotation
												End Site
												{
													OFFSET 0 0 0
												}
											}
										}
									}
								}
							}
						}
					}
				}
			}
		}
	}
}
MOTION
Frames: 9
Frame Time: 0.03333333
-0.352168 102.803047 -1.716293 0.000000 0.000000 0.000000 0.857755 -30.337091 -0.678226 -22.703769 15.743043 13.545108 18.591094 10.777618 -1.039076 1.334381 -4.723882 -0.863102 1.318025 0.208444 -2.169911 0.000000 0.000000 0.000000 1.122999 -29.686990 -0.383646 -13.162761 -3.205881 -3.284471 8.483646 3.762283 -3.558541 -5.090078 3.169172 4.287587 -5.808097 -0.714237 -2.139808 0.000000 0.000000 0.000000 1.170669 -27.590107 -1.360863 6.003258 -1.551290 0.152801 2.294496 -1.090292 2.698252 0.317461 -3.852958 0.322185 0.000000 0.000000 0.000000 2.519775 -0.367621 2.571133 -6.758383 18.224820 -8.020451 -1.941940 22.177722 4.061538 0.000000 0.000000 0.000000 2.484652 0.004530 2.794027 0.893753 -10.335599 -3.443047 0.249726 -3.843713 -1.828462 -60.826912 -0.142908 -34.632481 22.856405 -63.956314 24.006209 0.000000 0.000000 0.000000 2.217265 -0.544016 2.213064 3.812541 7.532259 7.737319 -1.107248 -3.841587 1.980267 -1.233525 -0.811870 61.334894 16.248351 14.757126 -7.661287 0.000000 0.000000 0.000000 
-0.218783 102.505722 -1.658932 0.000000 0.000000 0.000000 0.639226 -29.482932 -0.755556 -23.540935 16.731392 13.609938 19.029272 10.498194 -0.887606 0.922844 -5.219654 -1.345531 1.167631 0.113117 -1.858914 0.000000 0.000000 0.000000 1.159176 -28.691238 -0.378489 -12.790032 -2.757449 -3.383767 8.322595 3.254949 -3.734741 -5.779272 2.656947 5.512583 -6.493927 -0.822384 -2.478691 0.000000 0.000000 0.000000 0.926700 -25.929953 -1.001138 5.766216 -1.230095 0.148054 2.541360 -0.856486 2.619528 -0.928089 -1.327021 0.292934 0.000000 0.000000 0.000000 2.236357 -0.246790 2.366649 -6.628350 17.151696 -7.612834 -2.821785 21.568149 4.519893 0.000000 0.000000 0.000000 2.623317 0.207452 2.671065 0.457033 -9.038470 -3.922021 -0.906353 -1.989144 -2.530119 -59.866827 2.758855 -33.972746 23.936266 -64.265687 24.752891 0.000000 0.000000 0.000000 2.153981 -0.319646 2.078825 3.788600 7.817308 8.255458 -1.070983 -3.853809 1.207171 -0.280396 -0.565477 60.679243 16.695807 15.509655 -7.849583 0.000000 0.000000 0.000000 
-0.220817 101.781029 -1.242054 0.000000 0.000000 0.000000 0.473429 -26.159652 -0.628548 -24.961486 16.416973 13.226576 20.285271 9.805932 -0.815103 0.575257 -6.257133 -1.630300 0.841567 -0.016332 -1.343673 0.000000 0.000000 0.000000 1.206079 -24.988841 -0.304645 -11.294172 -3.227183 -3.574861 9.250676 1.340808 -3.880288 -8.721210 0.714818 6.001228 -5.186041 -1.051055 -2.547384 0.000000 0.000000 0.000000 0.932188 -22.357900 -0.511272 5.285877 -0.516410 0.311476 2.881465 -0.266265 2.456028 -1.643330 0.409939 0.228085 0.000000 0.000000 0.000000 2.132364 0.206849 2.133714 -7.166468 14.621278 -6.970187 -3.514325 18.778903 4.340405 0.000000 0.000000 0.000000 2.779157 0.668844 2.396840 -0.091747 -7.042859 -4.616253 -1.518363 -0.975821 -2.292893 -61.145219 7.930264 -32.449986 25.250267 -67.109764 25.457312 0.000000 0.000000 0.000000 2.105745 0.235289 1.894383 3.826507 8.458587 9.083650 -1.118669 -3.564868 0.420621 1.206656 -1.653602 60.265655 17.809460 17.317987 -8.591486 0.000000 0.000000 0.000000 
-0.275488 100.929443 -0.471867 0.000000 0.000000 0.000000 0.416326 -20.683862 -0.338939 -26.575697 14.743870 12.296775 21.731971 8.860812 -0.762387 0.846022 -7.650535 -1.650201 0.358755 -0.140297 -0.762007 0.000000 0.000000 0.000000 1.264102 -19.161266 -0.129683 -9.096334 -4.578986 -3.940331 10.789263 -1.516374 -3.856896 -12.674801 -2.048053 5.990947 -3.004193 -1.208954 -2.346633 0.000000 0.000000 0.000000 1.197514 -17.305218 -0.045520 4.526200 0.571370 0.564584 3.266205 0.657877 2.146846 -1.339942 1.097199 0.146180 0.000000 0.000000 0.000000 2.219326 1.006734 1.818963 -8.232718 10.752048 -5.971291 -3.947493 14.048252 3.516751 0.000000 0.000000 0.000000 2.953390 1.419331 2.003021 -0.673805 -4.601404 -5.294902 -1.059122 -1.418315 -0.823484 -64.314427 13.393654 -30.266552 26.702032 -71.744717 26.012024 0.000000 0.000000 0.000000 2.118400 1.110038 1.599497 3.876157 9.278006 10.204940 -1.324129 -3.203581 -0.170676 2.825061 -3.764052 60.146202 19.359013 19.486478 -9.728635 0.000000 0.000000 0.000000 
-0.323162 100.273331 0.498684 0.000000 0.000000 0.000000 0.402549 -13.813377 -0.013214 -27.966901 11.604698 10.807828 22.750906 7.955474 -0.659611 2.025497 -9.100515 -1.247349 -0.079269 -0.245988 -0.261302 0.000000 0.000000 0.000000 1.338251 -11.987493 0.123972 -6.487723 -6.434542 -4.495765 12.714080 -4.410569 -3.468851 -16.006886 -4.655315 6.160363 -1.946258 -1.191306 -1.766296 0.000000 0.000000 0.000000 1.570269 -11.283905 0.292331 3.444264 1.991126 0.840287 3.599039 1.876920 1.672124 -0.260821 1.163287 0.372129 0.000000 0.000000 0.000000 2.509861 2.132507 1.399799 -9.628375 5.648121 -4.377954 -4.046564 7.902007 2.089147 0.000000 0.000000 0.000000 3.117460 2.473268 1.519955 -1.190914 -1.952115 -5.890136 -0.066066 -2.529710 1.107165 -68.389004 17.930285 -27.781590 27.116333 -77.064287 25.361365 0.000000 0.000000 0.000000 2.223705 2.268613 1.187236 3.854339 10.086263 11.560426 -1.988784 -2.813660 -0.393084 4.329686 -6.229377 60.120315 21.042904 21.264305 -11.095200 0.000000 0.000000 0.000000 
-0.371498 99.957321 1.545864 0.000000 0.000000 0.000000 0.487528 -6.388495 0.229615 -28.780788 7.233053 8.937496 22.719171 7.278208 -0.469744 3.775518 -10.326461 -0.276631 -0.027810 -0.311465 0.060900 0.000000 0.000000 0.000000 1.296815 -4.610589 0.331126 -3.808759 -8.343068 -5.170069 14.797846 -6.730540 -2.749205 -17.209083 -6.474304 7.117006 -3.613950 -0.998111 -0.877770 0.000000 0.000000 0.000000 1.843826 -4.859449 0.401443 2.051290 3.657248 1.137999 3.813988 3.310154 1.086999 0.893349 1.268527 0.494530 0.000000 0.000000 0.000000 2.942655 3.508160 0.888436 -11.005990 -0.497315 -2.044660 -3.693360 0.880572 0.156592 0.000000 0.000000 0.000000 3.242912 3.798528 1.003502 -1.572699 0.641752 -6.313179 1.218705 -3.939730 2.964837 -72.080728 20.754530 -25.507307 23.792233 -82.195384 20.977201 0.000000 0.000000 0.000000 2.422955 3.632756 0.672602 3.680775 10.704570 13.071964 -3.117461 -2.245966 -0.564883 5.726517 -8.353294 59.816591 22.634204 22.369950 -12.535533 0.000000 0.000000 0.000000 
-0.312191 99.994362 2.752338 0.000000 0.000000 0.000000 0.548204 1.261618 0.227128 -28.836318 2.093140 6.915009 21.521470 6.683513 -0.263793 5.601938 -11.381234 1.014811 0.471234 -0.342292 0.176198 0.000000 0.000000 0.000000 1.072145 2.470761 0.369835 -1.180092 -9.833629 -5.738149 16.914690 -8.407648 -1.856611 -15.592395 -7.439288 9.037515 -8.323802 -0.894087 0.236881 0.000000 0.000000 0.000000 1.841400 1.978204 0.351502 0.420886 5.411319 1.505693 3.879953 4.857707 0.493925 1.614886 1.199989 0.504825 0.000000 0.000000 0.000000 3.389085 4.996676 0.319771 -12.083129 -7.324050 0.954237 -3.025372 -6.545994 -2.089159 0.000000 0.000000 0.000000 3.322917 5.300992 0.523292 -1.776987 2.942768 -6.445828 2.620166 -5.506916 4.425801 -74.537800 22.142690 -23.743430 6.320884 -85.850929 2.627836 0.000000 0.000000 0.000000 2.742217 5.112254 0.109573 3.373595 11.004050 14.432326 -4.471801 -1.608755 -0.804408 7.210587 -9.461279 58.944936 24.137086 22.746492 -14.053367 0.000000 0.000000 0.000000 
-0.122330 100.318481 3.772388 0.000000 0.000000 0.000000 0.348736 8.615957 -0.026208 -28.219644 -3.491480 5.118311 19.727185 5.785057 -0.129855 7.410367 -12.453807 1.966126 0.845317 -0.304707 0.182068 0.000000 0.000000 0.000000 0.556489 9.292775 0.199414 1.281784 -10.681862 -6.060133 19.158518 -9.509205 -0.858929 -11.516868 -7.522870 11.437478 -15.222427 -1.180740 1.529503 0.000000 0.000000 0.000000 1.450184 8.989853 0.196106 -1.314724 7.094993 2.017325 3.869757 6.378513 -0.001575 1.740999 1.253851 0.662992 0.000000 0.000000 0.000000 3.764554 6.428179 -0.215167 -12.731931 -14.308261 4.403358 -2.302747 -13.681921 -4.538538 0.000000 0.000000 0.000000 3.378099 6.791208 0.102625 -1.779397 4.879425 -6.271145 3.531644 -6.727877 5.036546 -75.793755 22.791325 -22.445564 -27.716822 -86.236876 -31.917150 0.000000 0.000000 0.000000 3.099921 6.555064 -0.427862 2.994102 10.829393 15.343255 -5.656965 -0.754323 -1.153875 9.043812 -9.262370 57.160989 25.630457 22.722977 -15.711180 0.000000 0.000000 0.000000 
0.292749 100.852287 4.587822 0.000000 0.000000 0.000000 -0.233133 15.580269 -0.385667 -27.360828 -8.979068 3.732297 18.174823 4.272488 -0.174373 9.297413 -13.758724 1.932921 0.623320 -0.118160 0.283419 0.000000 0.000000 0.000000 -0.139299 16.039499 -0.183607 3.510732 -10.924561 -6.111541 21.246150 -10.175912 0.091343 -5.948126 -6.849592 13.692380 -23.433474 -1.894627 2.611933 0.000000 0.000000 0.000000 0.695662 15.801480 -0.034314 -2.962786 8.498028 2.712013 3.817738 7.683632 -0.332751 1.648968 1.481157 0.640610 0.000000 0.000000 0.000000 3.998149 7.624394 -0.632857 -12.948640 -20.831720 7.940010 -1.894596 -19.770215 -7.162338 0.000000 0.000000 0.000000 3.382431 8.074370 -0.239458 -1.655720 6.413969 -5.730976 3.587846 -7.569390 4.511469 -76.783470 22.897451 -21.144763 -32.187690 -84.148709 -36.406431 0.000000 0.000000 0.000000 3.460523 7.786749 -0.900337 2.656235 10.205870 15.448676 -6.239281 0.237976 -1.411729 11.190994 -8.053847 54.339581 27.222793 22.699152 -17.653264 0.000000 0.000000 0.000000 
